<svg xmlns="http://www.w3.org/2000/svg" viewBox="0 0 960 600" fill="none">
  <defs><linearGradient id="bg" x1="40" y1="0" x2="900" y2="580" gradientUnits="userSpaceOnUse"><stop stop-color="#302440"/><stop offset=".46" stop-color="#191827"/><stop offset="1" stop-color="#101116"/></linearGradient><linearGradient id="line" x1="145" y1="418" x2="826" y2="177" gradientUnits="userSpaceOnUse"><stop stop-color="#D694FF"/><stop offset="1" stop-color="#FFDB90"/></linearGradient><filter id="blur"><feGaussianBlur stdDeviation="50"/></filter></defs>
  <rect width="960" height="600" rx="30" fill="url(#bg)"/><circle cx="145" cy="75" r="170" fill="#B275D8" fill-opacity=".22" filter="url(#blur)"/>
  <rect x="68" y="65" width="824" height="470" rx="21" fill="#0D0C16" fill-opacity=".75" stroke="#E7D3FF" stroke-opacity=".18"/>
  <text x="108" y="116" fill="#DDD1EA" font-family="Arial, sans-serif" font-size="18" letter-spacing="3">POOL MONITORING</text>
  <g fill="#171629" stroke="#FFF0C5" stroke-opacity=".2"><rect x="108" y="151" width="213" height="104" rx="12"/><rect x="340" y="151" width="213" height="104" rx="12"/><rect x="572" y="151" width="280" height="104" rx="12"/></g>
  <g font-family="Arial, sans-serif"><text x="131" y="184" fill="#9F9AAA" font-size="12">RESPONSE</text><text x="131" y="226" fill="#F7F2EE" font-size="32" font-weight="700">FAST</text><text x="363" y="184" fill="#9F9AAA" font-size="12">HEALTH</text><text x="363" y="226" fill="#9FE6BD" font-size="32" font-weight="700">GOOD</text><text x="595" y="184" fill="#9F9AAA" font-size="12">ACTIVE POOLS</text><text x="595" y="226" fill="#F7F2EE" font-size="32" font-weight="700">24 / 24</text></g>
  <g stroke="#A89AAD" stroke-opacity=".2"><path d="M108 315H852M108 365H852M108 415H852M108 465H852"/></g>
  <path d="M108 444C148 431 169 452 211 397C251 344 293 396 333 360C387 310 411 376 457 338C504 299 539 340 579 277C627 202 663 298 709 226C753 156 790 214 852 165" stroke="url(#line)" stroke-width="6" stroke-linecap="round"/>
  <circle cx="709" cy="226" r="8" fill="#FFE2A0"/><circle cx="852" cy="165" r="8" fill="#FFE2A0"/>
  <text x="108" y="501" fill="#958C9E" font-family="Arial, sans-serif" font-size="12">REAL-TIME HEALTH CHECK / STATUS NORMAL</text>
</svg>
